<svg height="96" width="96" xmlns="http://www.w3.org/2000/svg" xmlns:xlink="http://www.w3.org/1999/xlink"><linearGradient id="a"><stop offset="0" stop-color="#3b3b3b"/><stop offset="1" stop-color="#aeaeae"/></linearGradient><linearGradient id="b"><stop offset="0" stop-color="#fefefe"/><stop offset="1" stop-color="#fefefe" stop-opacity="0"/></linearGradient><linearGradient id="c" gradientUnits="userSpaceOnUse" x1="36.357143" x2="36.357143" xlink:href="#b" y1="6" y2="63.893143"/><filter id="d" height="1.384" width="1.384" x="-.192" y="-.192"><feGaussianBlur stdDeviation="5.28"/></filter><linearGradient id="e" gradientUnits="userSpaceOnUse" x1="48" x2="48" xlink:href="#b" y1="20.220806" y2="138.66119"/><radialGradient id="f" cx="48" cy="90.171875" gradientTransform="matrix(1.1573129 0 0 .99590774 -7.551021 .197132)" gradientUnits="userSpaceOnUse" r="42" xlink:href="#b"/><clipPath id="g"><rect height="84" rx="6" width="84" x="6" y="6"/></clipPath><linearGradient id="h" gradientUnits="userSpaceOnUse" x1="48" x2="48" y1="-6" y2="-90.012283"><stop offset="0" stop-color="#efefef"/><stop offset="1" stop-color="#b1b1b1"/></linearGradient><linearGradient id="i" gradientTransform="matrix(1.0058652 0 0 .994169 100 0)" gradientUnits="userSpaceOnUse" x1="45.447727" x2="45.447727" y1="92.539597" y2="7.01654"><stop offset="0"/><stop offset="1" stop-opacity=".588235"/></linearGradient><linearGradient id="j" gradientTransform="matrix(1.0238095 0 0 1.0119048 -1.142857 -98.071429)" gradientUnits="userSpaceOnUse" x1="32.251034" x2="32.251034" xlink:href="#i" y1="6.131708" y2="90.238609"/><linearGradient id="k" gradientTransform="translate(0 -97)" gradientUnits="userSpaceOnUse" x1="32.251034" x2="32.251034" xlink:href="#i" y1="6.131708" y2="90.238609"/><linearGradient id="l" gradientTransform="matrix(1.4649654 0 0 1.4461176 21.924085 17.616471)" gradientUnits="userSpaceOnUse" x2="0" y1="17.67725" y2="31.652639"><stop offset="0" stop-color="#8595bc"/><stop offset="1" stop-color="#041a3b"/></linearGradient><linearGradient id="m" gradientUnits="userSpaceOnUse" x1="17.810976" x2="17.884146" xlink:href="#a" y1="15.731708" y2="23.963415"/><linearGradient id="n" gradientUnits="userSpaceOnUse" x1="17.506098" x2="17.579268" xlink:href="#a" y1="71.731705" y2="80.420731"/><g fill="url(#j)"><path d="m12-95.03125c-5.5110903 0-10.03125 4.52016-10.03125 10.03125v71c0 5.5110902 4.5201598 10.03125 10.03125 10.03125h72c5.51109 0 10.03125-4.5201597 10.03125-10.03125v-71c0-5.51109-4.52016-10.03125-10.03125-10.03125z" opacity=".08" transform="scale(1 -1)"/><path d="m12-94.03125c-4.971633 0-9.03125 4.059617-9.03125 9.03125v71c0 4.9716329 4.0596171 9.03125 9.03125 9.03125h72c4.971633 0 9.03125-4.059617 9.03125-9.03125v-71c0-4.971633-4.059617-9.03125-9.03125-9.03125z" opacity=".1" transform="scale(1 -1)"/><path d="m12-93c-4.4091333 0-8 3.590867-8 8v71c0 4.4091333 3.5908667 8 8 8h72c4.409133 0 8-3.5908667 8-8v-71c0-4.409133-3.590867-8-8-8z" opacity=".2" transform="scale(1 -1)"/><rect height="85" opacity=".3" rx="7" transform="scale(1 -1)" width="86" x="5" y="-92"/></g><rect fill="url(#k)" height="84" opacity=".45" rx="6" transform="scale(1 -1)" width="84" x="6" y="-91"/><rect fill="url(#h)" height="84" rx="6" transform="scale(1 -1)" width="84" x="6" y="-90"/><path d="m12 6c-3.324 0-6 2.676-6 6v2 68 2c0 .334721.04135.6507.09375.96875.0487.295596.09704.596915.1875.875.00988.03038.020892.0636.03125.09375.098865.287771.2348802.547452.375.8125.1445918.273507.3156161.535615.5.78125s.3737765.473472.59375.6875c.439947.428056.94291.814526 1.5 1.09375.278545.139612.5734731.246947.875.34375-.2562018-.100222-.4867109-.236272-.71875-.375-.00741-.0044-.023866.0045-.03125 0-.031933-.0193-.062293-.04251-.09375-.0625-.120395-.0767-.2310226-.163513-.34375-.25-.1061728-.0808-.2132809-.161112-.3125-.25-.1779299-.161433-.3474596-.345388-.5-.53125-.1075789-.130255-.2183939-.265285-.3125-.40625-.025089-.03838-.038446-.08587-.0625-.125-.064763-.103032-.1302275-.204517-.1875-.3125-.1010083-.194706-.2056748-.415701-.28125-.625-.00796-.02181-.023589-.04055-.03125-.0625-.0318251-.09195-.0358045-.186831-.0625-.28125-.0303323-.106618-.0703894-.203031-.09375-.3125-.0728786-.341512-.125-.698205-.125-1.0625v-2-68-2c0-2.781848 2.2181517-5 5-5h2 68 2c2.781848 0 5 2.218152 5 5v2 68 2c0 .364295-.05212.720988-.125 1.0625-.04415.206893-.08838.397658-.15625.59375-.0077.02195-.0233.04069-.03125.0625-.06274.173739-.138383.367449-.21875.53125-.04158.0828-.07904.169954-.125.25-.0546.09721-.126774.18835-.1875.28125-.09411.140965-.204921.275995-.3125.40625-.143174.17445-.303141.346998-.46875.5-.01117.0102-.01998.02115-.03125.03125-.138386.125556-.285091.234436-.4375.34375-.102571.07315-.204318.153364-.3125.21875-.0074.0045-.02384-.0044-.03125 0-.232039.138728-.462548.274778-.71875.375.301527-.0968.596455-.204138.875-.34375.55709-.279224 1.060053-.665694 1.5-1.09375.219973-.214028.409366-.441865.59375-.6875s.355408-.507743.5-.78125c.14012-.265048.276135-.524729.375-.8125.01041-.03078.02133-.06274.03125-.09375.09046-.278085.1388-.579404.1875-.875.0524-.31805.09375-.634029.09375-.96875v-2-68-2c0-3.324-2.676-6-6-6z" fill="url(#c)" opacity=".5"/><path d="m12 90c-3.324 0-6-2.676-6-6v-2-68-2c0-.334721.04135-.6507.09375-.96875.0487-.295596.09704-.596915.1875-.875.00988-.03038.020892-.0636.03125-.09375.098865-.287771.2348802-.547452.375-.8125.1445918-.273507.3156161-.535615.5-.78125s.3737765-.473472.59375-.6875c.439947-.428056.94291-.814526 1.5-1.09375.278545-.139612.5734731-.246947.875-.34375-.2562018.100222-.4867109.236272-.71875.375-.00741.0044-.023866-.0045-.03125 0-.031933.0193-.062293.04251-.09375.0625-.120395.0767-.2310226.163513-.34375.25-.1061728.0808-.2132809.161112-.3125.25-.1779299.161433-.3474596.345388-.5.53125-.1075789.130255-.2183939.265285-.3125.40625-.025089.03838-.038446.08587-.0625.125-.064763.103032-.1302275.204517-.1875.3125-.1010083.194706-.2056748.415701-.28125.625-.00796.02181-.023589.04055-.03125.0625-.0318251.09195-.0358045.186831-.0625.28125-.0303323.106618-.0703894.203031-.09375.3125-.0728786.341512-.125.698205-.125 1.0625v2 68 2c0 2.781848 2.2181517 5 5 5h2 68 2c2.781848 0 5-2.218152 5-5v-2-68-2c0-.364295-.05212-.720988-.125-1.0625-.04415-.206893-.08838-.397658-.15625-.59375-.0077-.02195-.0233-.04069-.03125-.0625-.06274-.173739-.138383-.367449-.21875-.53125-.04158-.0828-.07904-.169954-.125-.25-.0546-.09721-.126774-.18835-.1875-.28125-.09411-.140965-.204921-.275995-.3125-.40625-.143174-.17445-.303141-.346998-.46875-.5-.01117-.0102-.01998-.02115-.03125-.03125-.138386-.125556-.285091-.234436-.4375-.34375-.102571-.07315-.204318-.153364-.3125-.21875-.0074-.0045-.02384.0044-.03125 0-.232039-.138728-.462548-.274778-.71875-.375.301527.0968.596455.204138.875.34375.55709.279224 1.060053.665694 1.5 1.09375.219973.214028.409366.441865.59375.6875s.355408.507743.5.78125c.14012.265048.276135.524729.375.8125.01041.03078.02133.06274.03125.09375.09046.278085.1388.579404.1875.875.0524.31805.09375.634029.09375.96875v2 68 2c0 3.324-2.676 6-6 6z" fill="url(#f)" opacity=".2"/><g transform="translate(2.000002)"><path d="m30.306641 14a.33072.13080001 0 0 0 -.306641.130859v1.738282a.33072.13080001 0 0 0 .330078.130859h47.339844a.33072.13080001 0 0 0 .330078-.130859v-1.738282a.33072.13080001 0 0 0 -.330078-.130859h-47.339844a.33072.13080001 0 0 0 -.02344 0zm-.08789 5a.23435714.13080001 0 0 0 -.218751.130859v1.738282a.23435714.13080001 0 0 0 .234375.130859h33.53125a.23435714.13080001 0 0 0 .234375-.130859v-1.738282a.23435714.13080001 0 0 0 -.234375-.130859h-33.53125a.23435714.13080001 0 0 0 -.01563 0zm.08789 48a.33072.13080001 0 0 0 -.306641.130859v1.738282a.33072.13080001 0 0 0 .330078.130859h47.339844a.33072.13080001 0 0 0 .330078-.130859v-1.738282a.33072.13080001 0 0 0 -.330078-.130859h-47.339844a.33072.13080001 0 0 0 -.02344 0zm0 5a.33072.13080001 0 0 0 -.306641.130859v1.738282a.33072.13080001 0 0 0 .330078.130859h47.339844a.33072.13080001 0 0 0 .330078-.130859v-1.738282a.33072.13080001 0 0 0 -.330078-.130859h-47.339844a.33072.13080001 0 0 0 -.02344 0zm0 5a.33072.13080001 0 0 0 -.306641.130859v1.738282a.33072.13080001 0 0 0 .330078.130859h47.339844a.33072.13080001 0 0 0 .330078-.130859v-1.738282a.33072.13080001 0 0 0 -.330078-.130859h-47.339844a.33072.13080001 0 0 0 -.02344 0zm-.08789 5a.23435714.13080001 0 0 0 -.218751.130859v1.738282a.23435714.13080001 0 0 0 .234375.130859h33.53125a.23435714.13080001 0 0 0 .234375-.130859v-1.738282a.23435714.13080001 0 0 0 -.234375-.130859h-33.53125a.23435714.13080001 0 0 0 -.01563 0z" display="block" fill="#727272"/><path d="m30 61h50v-15h-50z" fill="url(#l)"/><path d="m30 26h50v20h-50z" fill="#729fcf"/><g stroke="none" stroke-width="2.0024" transform="matrix(1.748096 0 0 1.7401734 17.149994 7.195561)"><path d="m18.4 15.4c0 2.2-1.8 4.1-4.1 4.1-2.2 0-4.1-1.8-4.1-4.1 0-2.2 1.8-4.1 4.1-4.1 2.2 0 4.1 1.8 4.1 4.1z" fill="#e8f52f" opacity=".05"/><path d="m18 15.4c0 2-1.6 3.7-3.7 3.7-2 0-3.7-1.6-3.7-3.7 0-2 1.6-3.7 3.7-3.7 2 0 3.7 1.6 3.7 3.7z" fill="#ecf751" opacity=".208"/><path d="m17.6 15.4c0 1.8-1.5 3.3-3.3 3.3s-3.3-1.5-3.3-3.3 1.5-3.3 3.3-3.3 3.3 1.5 3.3 3.3z" fill="#f0f972" opacity=".367001"/><path d="m17.2 15.4c0 1.6-1.3 2.9-2.9 2.9s-2.9-1.3-2.9-2.9 1.3-2.9 2.9-2.9 2.9 1.3 2.9 2.9z" fill="#f4fa95" opacity=".525"/><path d="m16.8 15.4c0 1.4-1.1 2.5-2.5 2.5s-2.5-1.1-2.5-2.5 1.1-2.5 2.5-2.5 2.5 1.1 2.5 2.5z" fill="#f7fcb7" opacity=".683"/><path d="m16.4 15.4c0 1.2-1 2.1-2.1 2.1s-2.1-1-2.1-2.1 1-2.1 2.1-2.1 2.1 1 2.1 2.1z" fill="#fbfddb" opacity=".842"/><path d="m16 15.4c0 1-.8 1.8-1.8 1.8s-1.8-.8-1.8-1.8.8-1.8 1.8-1.8 1.8.8 1.8 1.8z" fill="#fefefe"/></g><path d="m59.104268 48.437518h12.760944l2.44747.696087h-4.195536s4.195536.348116 6.293157 2.958332c2.097768 2.436231-2.447322 5.394564-2.447322 5.394564-.174778-.522102-1.223588-4.698477-3.321356-6.438621-1.57329-1.392174-3.321356-1.740144-3.321356-1.740144h-8.216001v-.696087z" opacity=".3"/><path d="m67.495046 49.481721h-7.341968l13.635125 7.656664z" opacity=".3"/><path d="m59.104268 48.611649h12.760944l1.922991-1.218188h-4.195389s3.845688-.696087 4.370167-5.046448c.524478-4.35036-5.943456-9.222968-5.943456-9.222968v.174131c.174777 1.044057 1.922844 8.35275.699256 11.136952-.524479 2.436231-2.097768 2.958333-2.097768 2.958333h-8.041224l.349554 1.218188z" fill="#515151"/><path d="m66.79579 46.697374h-7.341968l8.74048-13.225213z" fill="#515151"/><path d="m30.306641 16a.33072.13080001 0 0 0 -.306641.130859v1.738282a.33072.13080001 0 0 0 .330078.130859h47.339844a.33072.13080001 0 0 0 .330078-.130859v-1.738282a.33072.13080001 0 0 0 -.330078-.130859h-47.339844a.33072.13080001 0 0 0 -.02344 0zm-.08789 5a.23435714.13080001 0 0 0 -.218751.130859v1.738282a.23435714.13080001 0 0 0 .234375.130859h33.53125a.23435714.13080001 0 0 0 .234375-.130859v-1.738282a.23435714.13080001 0 0 0 -.234375-.130859h-33.53125a.23435714.13080001 0 0 0 -.01563 0zm.08789 48a.33072.13080001 0 0 0 -.306641.130859v1.738282a.33072.13080001 0 0 0 .330078.130859h47.339844a.33072.13080001 0 0 0 .330078-.130859v-1.738282a.33072.13080001 0 0 0 -.330078-.130859h-47.339844a.33072.13080001 0 0 0 -.02344 0zm0 5a.33072.13080001 0 0 0 -.306641.130859v1.738282a.33072.13080001 0 0 0 .330078.130859h47.339844a.33072.13080001 0 0 0 .330078-.130859v-1.738282a.33072.13080001 0 0 0 -.330078-.130859h-47.339844a.33072.13080001 0 0 0 -.02344 0zm0 5a.33072.13080001 0 0 0 -.306641.130859v1.738282a.33072.13080001 0 0 0 .330078.130859h47.339844a.33072.13080001 0 0 0 .330078-.130859v-1.738282a.33072.13080001 0 0 0 -.330078-.130859h-47.339844a.33072.13080001 0 0 0 -.02344 0zm-.08789 5a.23435714.13080001 0 0 0 -.218751.130859v1.738282a.23435714.13080001 0 0 0 .234375.130859h33.53125a.23435714.13080001 0 0 0 .234375-.130859v-1.738282a.23435714.13080001 0 0 0 -.234375-.130859h-33.53125a.23435714.13080001 0 0 0 -.01563 0z" display="block" fill="#fefefe" opacity=".5"/></g><g fill="#fefefe" opacity=".5"><circle cx="18" cy="22" opacity="1" r="4"/><circle cx="18" cy="78" opacity="1" r="4"/></g><circle cx="18" cy="20" fill="url(#m)" r="4"/><circle cx="18" cy="76" fill="url(#n)" r="4"/><rect height="66" rx="12" style="opacity:.1;stroke:#fefefe;stroke-width:.5;stroke-linecap:round;clip-path:url(#g);fill:url(#e);filter:url(#d)" width="66" x="15" y="15"/></svg>